{
  "asset": {
    "generator": "Khronos glTF Blender I/O v1.6.16",
    "version": "2.0"
  },
  "scene": 0,
  "scenes": [
    {
      "name": "Scene",
      "nodes": [
        0,
        5
      ]
    }
  ],
  "nodes": [
    {
      "mesh": 0,
      "name": "LoftedBarn_6Wall_10x12_Fijos",
      "scale": [
        0.007852879352867603,
        0.011468259617686272,
        0.009695800021290779
      ]
    },
    {
      "mesh": 1,
      "name": "LoftedBarn_6Wall_10x12_None_Wall1"
    },
    {
      "mesh": 2,
      "name": "LoftedBarn_6Wall_10x12_None_Wall2"
    },
    {
      "mesh": 3,
      "name": "LoftedBarn_6Wall_10x12_None_Wall3"
    },
    {
      "mesh": 4,
      "name": "LoftedBarn_6Wall_10x12_None_Wall4"
    },
    {
      "children": [
        1,
        2,
        3,
        4
      ],
      "mesh": 5,
      "name": "LoftedBarn_6Wall_10x12_None",
      "scale": [
        0.007852879352867603,
        0.011468259617686272,
        0.009695800021290779
      ]
    }
  ],
  "materials": [
    {
      "doubleSided": true,
      "name": "Siding_LPSmartPanelSiding",
      "pbrMetallicRoughness": {
        "roughnessFactor": 0.8964735269546509
      }
    },
    {
      "doubleSided": true,
      "name": "Siding_BoardandBatten",
      "pbrMetallicRoughness": {
        "baseColorFactor": [
          0.5879999995231628,
          0.5879999995231628,
          0.5879999995231628,
          1
        ],
        "roughnessFactor": 0.858578622341156
      }
    },
    {
      "doubleSided": true,
      "name": "Roofing_Shingles_DesertTan",
      "pbrMetallicRoughness": {
        "baseColorFactor": [
          0.5879999995231628,
          0.5879999995231628,
          0.5879999995231628,
          1
        ],
        "roughnessFactor": 0.858578622341156
      }
    },
    {
      "doubleSided": true,
      "name": "Wood_Trim_Interior",
      "pbrMetallicRoughness": {
        "baseColorFactor": [
          0.5879999995231628,
          0.5879999995231628,
          0.5879999995231628,
          1
        ],
        "roughnessFactor": 0.858578622341156
      }
    },
    {
      "doubleSided": true,
      "name": "Wood_InteriorFloor",
      "pbrMetallicRoughness": {
        "baseColorFactor": [
          0.5879999995231628,
          0.5879999995231628,
          0.5879999995231628,
          1
        ],
        "roughnessFactor": 0.858578622341156
      }
    },
    {
      "doubleSided": true,
      "name": "Wood_Trim",
      "pbrMetallicRoughness": {
        "baseColorFactor": [
          0.5879999995231628,
          0.5879999995231628,
          0.5879999995231628,
          1
        ],
        "roughnessFactor": 0.858578622341156
      }
    },
    {
      "doubleSided": true,
      "name": "Metal_Interior",
      "pbrMetallicRoughness": {
        "baseColorFactor": [
          0.5879999995231628,
          0.5879999995231628,
          0.5879999995231628,
          1
        ],
        "roughnessFactor": 0.858578622341156
      }
    },
    {
      "doubleSided": true,
      "name": "Metal_Exterior",
      "pbrMetallicRoughness": {
        "baseColorFactor": [
          0.5879999995231628,
          0.5879999995231628,
          0.5879999995231628,
          1
        ],
        "roughnessFactor": 0.858578622341156
      }
    },
    {
      "doubleSided": true,
      "name": "Wood_Interior",
      "pbrMetallicRoughness": {
        "baseColorFactor": [
          0.5879999995231628,
          0.5879999995231628,
          0.5879999995231628,
          1
        ],
        "roughnessFactor": 0.858578622341156
      }
    }
  ],
  "meshes": [
    {
      "name": "Mesh",
      "primitives": [
        {
          "attributes": {
            "POSITION": 0,
            "NORMAL": 1,
            "TEXCOORD_0": 2
          },
          "indices": 3,
          "material": 0
        },
        {
          "attributes": {
            "POSITION": 4,
            "NORMAL": 5,
            "TEXCOORD_0": 6
          },
          "indices": 7,
          "material": 1
        },
        {
          "attributes": {
            "POSITION": 8,
            "NORMAL": 9,
            "TEXCOORD_0": 10
          },
          "indices": 11,
          "material": 2
        },
        {
          "attributes": {
            "POSITION": 12,
            "NORMAL": 13,
            "TEXCOORD_0": 14
          },
          "indices": 15,
          "material": 3
        },
        {
          "attributes": {
            "POSITION": 16,
            "NORMAL": 17,
            "TEXCOORD_0": 18
          },
          "indices": 19,
          "material": 4
        },
        {
          "attributes": {
            "POSITION": 20,
            "NORMAL": 21,
            "TEXCOORD_0": 22
          },
          "indices": 23,
          "material": 5
        },
        {
          "attributes": {
            "POSITION": 24,
            "NORMAL": 25,
            "TEXCOORD_0": 26
          },
          "indices": 27,
          "material": 6
        },
        {
          "attributes": {
            "POSITION": 28,
            "NORMAL": 29,
            "TEXCOORD_0": 30
          },
          "indices": 31,
          "material": 7
        }
      ]
    },
    {
      "name": "Mesh.002",
      "primitives": [
        {
          "attributes": {
            "POSITION": 32,
            "NORMAL": 33,
            "TEXCOORD_0": 34
          },
          "indices": 35,
          "material": 0
        }
      ]
    },
    {
      "name": "Mesh.003",
      "primitives": [
        {
          "attributes": {
            "POSITION": 36,
            "NORMAL": 37,
            "TEXCOORD_0": 38
          },
          "indices": 39,
          "material": 0
        }
      ]
    },
    {
      "name": "Mesh.004",
      "primitives": [
        {
          "attributes": {
            "POSITION": 40,
            "NORMAL": 41,
            "TEXCOORD_0": 42
          },
          "indices": 43,
          "material": 0
        }
      ]
    },
    {
      "name": "Mesh.005",
      "primitives": [
        {
          "attributes": {
            "POSITION": 44,
            "NORMAL": 45,
            "TEXCOORD_0": 46
          },
          "indices": 39,
          "material": 0
        }
      ]
    },
    {
      "name": "Mesh.001",
      "primitives": [
        {
          "attributes": {
            "POSITION": 47,
            "NORMAL": 48,
            "TEXCOORD_0": 49
          },
          "indices": 50,
          "material": 3
        },
        {
          "attributes": {
            "POSITION": 51,
            "NORMAL": 52,
            "TEXCOORD_0": 53
          },
          "indices": 54,
          "material": 8
        },
        {
          "attributes": {
            "POSITION": 55,
            "NORMAL": 56,
            "TEXCOORD_0": 57
          },
          "indices": 58,
          "material": 5
        }
      ]
    }
  ],
  "accessors": [
    {
      "bufferView": 0,
      "componentType": 5126,
      "count": 66,
      "max": [
        191.53549194335938,
        309.2214050292969,
        6.860984802246094
      ],
      "min": [
        -193.31100463867188,
        196.75045776367188,
        4.9063720703125
      ],
      "type": "VEC3"
    },
    {
      "bufferView": 1,
      "componentType": 5126,
      "count": 66,
      "type": "VEC3"
    },
    {
      "bufferView": 2,
      "componentType": 5126,
      "count": 66,
      "type": "VEC2"
    },
    {
      "bufferView": 3,
      "componentType": 5123,
      "count": 168,
      "type": "SCALAR"
    },
    {
      "bufferView": 4,
      "componentType": 5126,
      "count": 4,
      "max": [
        -88.40717315673828,
        -0.0001220703125,
        361.94024658203125
      ],
      "min": [
        -101.34510040283203,
        -0.0001220703125,
        14.754341125488281
      ],
      "type": "VEC3"
    },
    {
      "bufferView": 5,
      "componentType": 5126,
      "count": 4,
      "type": "VEC3"
    },
    {
      "bufferView": 6,
      "componentType": 5126,
      "count": 4,
      "type": "VEC2"
    },
    {
      "bufferView": 7,
      "componentType": 5123,
      "count": 6,
      "type": "SCALAR"
    },
    {
      "bufferView": 8,
      "componentType": 5126,
      "count": 121,
      "max": [
        207.9771728515625,
        318.2908630371094,
        376.1737976074219
      ],
      "min": [
        -206.6571502685547,
        -0.0001220703125,
        1.332611083984375
      ],
      "type": "VEC3"
    },
    {
      "bufferView": 9,
      "componentType": 5126,
      "count": 121,
      "type": "VEC3"
    },
    {
      "bufferView": 10,
      "componentType": 5126,
      "count": 121,
      "type": "VEC2"
    },
    {
      "bufferView": 11,
      "componentType": 5123,
      "count": 165,
      "type": "SCALAR"
    },
    {
      "bufferView": 12,
      "componentType": 5126,
      "count": 56,
      "max": [
        102.18800354003906,
        13.288726806640625,
        368.15509033203125
      ],
      "min": [
        -101.34510040283203,
        -0.0001220703125,
        8.609947204589844
      ],
      "type": "VEC3"
    },
    {
      "bufferView": 13,
      "componentType": 5126,
      "count": 56,
      "type": "VEC3"
    },
    {
      "bufferView": 14,
      "componentType": 5126,
      "count": 56,
      "type": "VEC2"
    },
    {
      "bufferView": 15,
      "componentType": 5123,
      "count": 108,
      "type": "SCALAR"
    },
    {
      "bufferView": 16,
      "componentType": 5126,
      "count": 24,
      "max": [
        177.58377075195312,
        19.38372802734375,
        360.9226379394531
      ],
      "min": [
        -177.27685546875,
        17.38372802734375,
        15.067115783691406
      ],
      "type": "VEC3"
    },
    {
      "bufferView": 17,
      "componentType": 5126,
      "count": 24,
      "type": "VEC3"
    },
    {
      "bufferView": 18,
      "componentType": 5126,
      "count": 24,
      "type": "VEC2"
    },
    {
      "bufferView": 19,
      "componentType": 5123,
      "count": 36,
      "type": "SCALAR"
    },
    {
      "bufferView": 20,
      "componentType": 5126,
      "count": 432,
      "max": [
        207.94921875,
        316.025390625,
        375.4181213378906
      ],
      "min": [
        -204.77914428710938,
        10.43609619140625,
        2.556427001953125
      ],
      "type": "VEC3"
    },
    {
      "bufferView": 21,
      "componentType": 5126,
      "count": 432,
      "type": "VEC3"
    },
    {
      "bufferView": 22,
      "componentType": 5126,
      "count": 432,
      "type": "VEC2"
    },
    {
      "bufferView": 23,
      "componentType": 5123,
      "count": 648,
      "type": "SCALAR"
    },
    {
      "bufferView": 24,
      "componentType": 5126,
      "count": 96,
      "max": [
        186.86370849609375,
        315.8616943359375,
        371.87554931640625
      ],
      "min": [
        -192.10763549804688,
        209.31024169921875,
        4.021690368652344
      ],
      "type": "VEC3"
    },
    {
      "bufferView": 25,
      "componentType": 5126,
      "count": 96,
      "type": "VEC3"
    },
    {
      "bufferView": 26,
      "componentType": 5126,
      "count": 96,
      "type": "VEC2"
    },
    {
      "bufferView": 27,
      "componentType": 5123,
      "count": 144,
      "type": "SCALAR"
    },
    {
      "bufferView": 28,
      "componentType": 5126,
      "count": 14553,
      "max": [
        211.91619873046875,
        324.3619384765625,
        378.6031188964844
      ],
      "min": [
        -212.3802490234375,
        194.87860107421875,
        -2.6155929565429688
      ],
      "type": "VEC3"
    },
    {
      "bufferView": 29,
      "componentType": 5126,
      "count": 14553,
      "type": "VEC3"
    },
    {
      "bufferView": 30,
      "componentType": 5126,
      "count": 14553,
      "type": "VEC2"
    },
    {
      "bufferView": 31,
      "componentType": 5123,
      "count": 33516,
      "type": "SCALAR"
    },
    {
      "bufferView": 32,
      "componentType": 5126,
      "count": 66,
      "max": [
        184.9797821044922,
        313.0045471191406,
        7.077648162841797
      ],
      "min": [
        -186.0202178955078,
        13.204641342163086,
        5.0776472091674805
      ],
      "type": "VEC3"
    },
    {
      "bufferView": 33,
      "componentType": 5126,
      "count": 66,
      "type": "VEC3"
    },
    {
      "bufferView": 34,
      "componentType": 5126,
      "count": 66,
      "type": "VEC2"
    },
    {
      "bufferView": 35,
      "componentType": 5123,
      "count": 168,
      "type": "SCALAR"
    },
    {
      "bufferView": 36,
      "componentType": 5126,
      "count": 24,
      "max": [
        187.296630859375,
        213.6900177001953,
        371.65972900390625
      ],
      "min": [
        185.79653930664062,
        13.204672813415527,
        7.111475944519043
      ],
      "type": "VEC3"
    },
    {
      "bufferView": 37,
      "componentType": 5126,
      "count": 24,
      "type": "VEC3"
    },
    {
      "bufferView": 38,
      "componentType": 5126,
      "count": 24,
      "type": "VEC2"
    },
    {
      "bufferView": 39,
      "componentType": 5123,
      "count": 36,
      "type": "SCALAR"
    },
    {
      "bufferView": 40,
      "componentType": 5126,
      "count": 66,
      "max": [
        188.6710205078125,
        313.0045471191406,
        371.71441650390625
      ],
      "min": [
        -189.38253784179688,
        13.204641342163086,
        369.7142333984375
      ],
      "type": "VEC3"
    },
    {
      "bufferView": 41,
      "componentType": 5126,
      "count": 66,
      "type": "VEC3"
    },
    {
      "bufferView": 42,
      "componentType": 5126,
      "count": 66,
      "type": "VEC2"
    },
    {
      "bufferView": 43,
      "componentType": 5123,
      "count": 168,
      "type": "SCALAR"
    },
    {
      "bufferView": 44,
      "componentType": 5126,
      "count": 24,
      "max": [
        -187.12521362304688,
        213.6900177001953,
        366.61669921875
      ],
      "min": [
        -188.62530517578125,
        13.204672813415527,
        7.1114912033081055
      ],
      "type": "VEC3"
    },
    {
      "bufferView": 45,
      "componentType": 5126,
      "count": 24,
      "type": "VEC3"
    },
    {
      "bufferView": 46,
      "componentType": 5126,
      "count": 24,
      "type": "VEC2"
    },
    {
      "bufferView": 47,
      "componentType": 5126,
      "count": 1576,
      "max": [
        184.9207305908203,
        315.6580505371094,
        368.74395751953125
      ],
      "min": [
        -186.0794219970703,
        20.868213653564453,
        8.651426315307617
      ],
      "type": "VEC3"
    },
    {
      "bufferView": 48,
      "componentType": 5126,
      "count": 1576,
      "type": "VEC3"
    },
    {
      "bufferView": 49,
      "componentType": 5126,
      "count": 1576,
      "type": "VEC2"
    },
    {
      "bufferView": 50,
      "componentType": 5123,
      "count": 2556,
      "type": "SCALAR"
    },
    {
      "bufferView": 51,
      "componentType": 5126,
      "count": 180,
      "max": [
        185.79690551757812,
        311.9972229003906,
        370.2259521484375
      ],
      "min": [
        -187.12501525878906,
        25.88113021850586,
        7.1114935874938965
      ],
      "type": "VEC3"
    },
    {
      "bufferView": 52,
      "componentType": 5126,
      "count": 180,
      "type": "VEC3"
    },
    {
      "bufferView": 53,
      "componentType": 5126,
      "count": 180,
      "type": "VEC2"
    },
    {
      "bufferView": 54,
      "componentType": 5123,
      "count": 408,
      "type": "SCALAR"
    },
    {
      "bufferView": 55,
      "componentType": 5126,
      "count": 584,
      "max": [
        190.37109375,
        210.39315795898438,
        373.911865234375
      ],
      "min": [
        -191.93930053710938,
        13.176610946655273,
        2.8674440383911133
      ],
      "type": "VEC3"
    },
    {
      "bufferView": 56,
      "componentType": 5126,
      "count": 584,
      "type": "VEC3"
    },
    {
      "bufferView": 57,
      "componentType": 5126,
      "count": 584,
      "type": "VEC2"
    },
    {
      "bufferView": 58,
      "componentType": 5123,
      "count": 1524,
      "type": "SCALAR"
    }
  ],
  "bufferViews": [
    {
      "buffer": 0,
      "byteLength": 792,
      "byteOffset": 0
    },
    {
      "buffer": 0,
      "byteLength": 792,
      "byteOffset": 792
    },
    {
      "buffer": 0,
      "byteLength": 528,
      "byteOffset": 1584
    },
    {
      "buffer": 0,
      "byteLength": 336,
      "byteOffset": 2112
    },
    {
      "buffer": 0,
      "byteLength": 48,
      "byteOffset": 2448
    },
    {
      "buffer": 0,
      "byteLength": 48,
      "byteOffset": 2496
    },
    {
      "buffer": 0,
      "byteLength": 32,
      "byteOffset": 2544
    },
    {
      "buffer": 0,
      "byteLength": 12,
      "byteOffset": 2576
    },
    {
      "buffer": 0,
      "byteLength": 1452,
      "byteOffset": 2588
    },
    {
      "buffer": 0,
      "byteLength": 1452,
      "byteOffset": 4040
    },
    {
      "buffer": 0,
      "byteLength": 968,
      "byteOffset": 5492
    },
    {
      "buffer": 0,
      "byteLength": 332,
      "byteOffset": 6460
    },
    {
      "buffer": 0,
      "byteLength": 672,
      "byteOffset": 6792
    },
    {
      "buffer": 0,
      "byteLength": 672,
      "byteOffset": 7464
    },
    {
      "buffer": 0,
      "byteLength": 448,
      "byteOffset": 8136
    },
    {
      "buffer": 0,
      "byteLength": 216,
      "byteOffset": 8584
    },
    {
      "buffer": 0,
      "byteLength": 288,
      "byteOffset": 8800
    },
    {
      "buffer": 0,
      "byteLength": 288,
      "byteOffset": 9088
    },
    {
      "buffer": 0,
      "byteLength": 192,
      "byteOffset": 9376
    },
    {
      "buffer": 0,
      "byteLength": 72,
      "byteOffset": 9568
    },
    {
      "buffer": 0,
      "byteLength": 5184,
      "byteOffset": 9640
    },
    {
      "buffer": 0,
      "byteLength": 5184,
      "byteOffset": 14824
    },
    {
      "buffer": 0,
      "byteLength": 3456,
      "byteOffset": 20008
    },
    {
      "buffer": 0,
      "byteLength": 1296,
      "byteOffset": 23464
    },
    {
      "buffer": 0,
      "byteLength": 1152,
      "byteOffset": 24760
    },
    {
      "buffer": 0,
      "byteLength": 1152,
      "byteOffset": 25912
    },
    {
      "buffer": 0,
      "byteLength": 768,
      "byteOffset": 27064
    },
    {
      "buffer": 0,
      "byteLength": 288,
      "byteOffset": 27832
    },
    {
      "buffer": 0,
      "byteLength": 174636,
      "byteOffset": 28120
    },
    {
      "buffer": 0,
      "byteLength": 174636,
      "byteOffset": 202756
    },
    {
      "buffer": 0,
      "byteLength": 116424,
      "byteOffset": 377392
    },
    {
      "buffer": 0,
      "byteLength": 67032,
      "byteOffset": 493816
    },
    {
      "buffer": 0,
      "byteLength": 792,
      "byteOffset": 560848
    },
    {
      "buffer": 0,
      "byteLength": 792,
      "byteOffset": 561640
    },
    {
      "buffer": 0,
      "byteLength": 528,
      "byteOffset": 562432
    },
    {
      "buffer": 0,
      "byteLength": 336,
      "byteOffset": 562960
    },
    {
      "buffer": 0,
      "byteLength": 288,
      "byteOffset": 563296
    },
    {
      "buffer": 0,
      "byteLength": 288,
      "byteOffset": 563584
    },
    {
      "buffer": 0,
      "byteLength": 192,
      "byteOffset": 563872
    },
    {
      "buffer": 0,
      "byteLength": 72,
      "byteOffset": 564064
    },
    {
      "buffer": 0,
      "byteLength": 792,
      "byteOffset": 564136
    },
    {
      "buffer": 0,
      "byteLength": 792,
      "byteOffset": 564928
    },
    {
      "buffer": 0,
      "byteLength": 528,
      "byteOffset": 565720
    },
    {
      "buffer": 0,
      "byteLength": 336,
      "byteOffset": 566248
    },
    {
      "buffer": 0,
      "byteLength": 288,
      "byteOffset": 566584
    },
    {
      "buffer": 0,
      "byteLength": 288,
      "byteOffset": 566872
    },
    {
      "buffer": 0,
      "byteLength": 192,
      "byteOffset": 567160
    },
    {
      "buffer": 0,
      "byteLength": 18912,
      "byteOffset": 567352
    },
    {
      "buffer": 0,
      "byteLength": 18912,
      "byteOffset": 586264
    },
    {
      "buffer": 0,
      "byteLength": 12608,
      "byteOffset": 605176
    },
    {
      "buffer": 0,
      "byteLength": 5112,
      "byteOffset": 617784
    },
    {
      "buffer": 0,
      "byteLength": 2160,
      "byteOffset": 622896
    },
    {
      "buffer": 0,
      "byteLength": 2160,
      "byteOffset": 625056
    },
    {
      "buffer": 0,
      "byteLength": 1440,
      "byteOffset": 627216
    },
    {
      "buffer": 0,
      "byteLength": 816,
      "byteOffset": 628656
    },
    {
      "buffer": 0,
      "byteLength": 7008,
      "byteOffset": 629472
    },
    {
      "buffer": 0,
      "byteLength": 7008,
      "byteOffset": 636480
    },
    {
      "buffer": 0,
      "byteLength": 4672,
      "byteOffset": 643488
    },
    {
      "buffer": 0,
      "byteLength": 3048,
      "byteOffset": 648160
    }
  ],
  "buffers": [
    {
      "uri": "barn_testing_data.bin",
      "byteLength": 651208
    }
  ]
}